<svg xmlns="http://www.w3.org/2000/svg" viewBox="1.6 0 20.8 24">
	<path fill="#673ab8" d="m12.000025 0.25 10.175925 5.875v11.75L12.000025 23.75 1.8240975 17.875v-11.75L12.000025 0.25Z"
		stroke-width="0.25"></path>
	<path fill="#ffffff"
		d="M4.595725 17.778025c1.352825 1.7315 5.652 0.41215 9.71085 -2.758975 4.058875 -3.171125 6.3791 -7.023425 5.0263 -8.75495 -1.352825 -1.731525 -5.652025 -0.412175 -9.710875 2.75895S3.242925 16.0465 4.595725 17.778025Zm0.577925 -0.45155c-0.44865 -0.574225 -0.252625 -1.7015 0.602125 -3.12065 0.90005 -1.494375 2.427975 -3.144 4.29775 -4.604825 1.869775 -1.46085 3.84005 -2.5443 5.507775 -3.0561 1.583775 -0.486025 2.724975 -0.403525 3.173625 0.170725 0.448675 0.57425 0.25265 1.701525 -0.6021 3.120675 -0.90005 1.49435 -2.428 3.144 -4.297775 4.604825 -1.869775 1.460825 -3.84005 2.5443 -5.50775 3.0561 -1.583775 0.486025 -2.725 0.4035 -3.17365 -0.17075Z"
		stroke-width="0.25"></path>
	<path fill="#ffffff"
		d="M19.332875 17.778025c1.3528 -1.731525 -0.967425 -5.58385 -5.0263 -8.754975 -4.05885 -3.171125 -8.358025 -4.490475 -9.71085 -2.75895 -1.3528 1.731525 0.967425 5.583825 5.026275 8.75495 4.05885 3.171125 8.35805 4.490475 9.710875 2.758975Zm-0.57795 -0.45155c-0.44865 0.57425 -1.58985 0.656775 -3.173625 0.17075 -1.667725 -0.5118 -3.638 -1.595275 -5.507775 -3.0561 -1.869775 -1.460825 -3.3977 -3.110475 -4.29775 -4.604825 -0.85475 -1.41915 -1.050775 -2.546425 -0.602125 -3.120675 0.44865 -0.57425 1.589875 -0.65675 3.17365 -0.170725 1.6677 0.5118 3.637975 1.59525 5.50775 3.0561 1.869775 1.460825 3.397725 3.11045 4.297775 4.604825 0.85475 1.41915 1.050775 2.546425 0.6021 3.12065Z"
		stroke-width="0.25"></path>
	<path fill="#ffffff"
		d="M11.96435 13.579475c0.860725 0 1.558475 -0.69775 1.558475 -1.558475 0 -0.860725 -0.69775 -1.558475 -1.558475 -1.558475 -0.860725 0 -1.558475 0.69775 -1.558475 1.558475 0 0.860725 0.69775 1.558475 1.558475 1.558475Z"
		stroke-width="0.25"></path>
</svg>