<svg xmlns="http://www.w3.org/2000/svg" viewBox="17 22 156 166">
	<path fill="white" d="M127.99 94.43 67.56 28.5l8.59 51.64-15.38 14.92 62.62 62.23-5.64-51.66 10.24-11.17z" />
	<path fill="#18b6f6"
		d="m153.3 186.54-29.35-29.2-.42.07v-.3L61.12 95.37l15.41-14.85-9.06-51.93-42.89 53.2c-7.28 7.36-8.68 19.39-3.4 28.21l26.8 44.49c4.1 6.82 10.54 11.2 19.53 10.88 19.03-.67 27.4-.67 27.4-.67l58.37 21.81.02.02Z" />
	<path fill="#ac7ef4"
		d="M167.8 104.72c4.23-8.72 5.74-16.35 1.57-24l-5.93-10.92-3.08-5.6-1.2-2.2-.1.14-16.15-28A22.57 22.57 0 0 0 123.1 22.8l-14.16.4-42.25.11A22.66 22.66 0 0 0 47.31 34.5L21.64 85.48l45.94-57.15 60.27 66.27-10.8 10.93 6.45 51.84.09-.1v.14h-.1l.14.13 5.02 4.9 24.3 23.74c1.03.98 2.68-.2 2-1.42l-15.02-29.57" />
</svg>